<svg xmlns="http://www.w3.org/2000/svg" xmlns:xlink="http://www.w3.org/1999/xlink" width="500" zoomAndPan="magnify" viewBox="0 0 375 374.999991" height="500" preserveAspectRatio="xMidYMid meet" version="1.0"><defs><g/><clipPath id="90466c0937"><path d="M 33.507812 200.605469 L 350.742188 200.605469 L 350.742188 237.679688 L 33.507812 237.679688 Z M 33.507812 200.605469 " clip-rule="nonzero"/></clipPath></defs><g fill="#fefefe" fill-opacity="1"><g transform="translate(176.410085, 273.355588)"><g><path d="M 6.359375 0 L 6.359375 -1.8125 L 10.1875 -1.8125 C 14.425781 -1.8125 17.726562 -2.78125 20.09375 -4.71875 C 22.457031 -6.664062 23.640625 -9.941406 23.640625 -14.546875 L 23.640625 -115.984375 C 23.640625 -120.222656 22.457031 -123.28125 20.09375 -125.15625 C 17.726562 -127.039062 14.425781 -127.984375 10.1875 -127.984375 L 6.359375 -127.984375 L 6.359375 -129.796875 L 63.265625 -129.796875 C 82.410156 -129.796875 97.316406 -124.25 107.984375 -113.15625 C 118.648438 -102.070312 123.984375 -86.226562 123.984375 -65.625 C 123.984375 -52.414062 121.707031 -40.875 117.15625 -31 C 112.613281 -21.125 105.828125 -13.488281 96.796875 -8.09375 C 87.773438 -2.695312 76.597656 0 63.265625 0 Z M 44.71875 -1.8125 L 59.078125 -1.8125 C 73.742188 -1.8125 84.378906 -6.8125 90.984375 -16.8125 C 97.585938 -26.8125 100.890625 -43.082031 100.890625 -65.625 C 100.890625 -87.5625 97.617188 -103.4375 91.078125 -113.25 C 84.535156 -123.070312 73.929688 -127.984375 59.265625 -127.984375 L 44.71875 -127.984375 Z M 44.71875 -1.8125 "/></g></g></g><g fill="#fefefe" fill-opacity="1"><g transform="translate(28.258838, 216.929235)"><g><path d="M 6.359375 0 L 6.359375 -1.8125 L 15.265625 -1.8125 C 19.390625 -1.8125 22.632812 -2.78125 25 -4.71875 C 27.363281 -6.664062 28.546875 -9.878906 28.546875 -14.359375 L 28.546875 -115.984375 C 28.546875 -120.222656 27.363281 -123.28125 25 -125.15625 C 22.632812 -127.039062 19.390625 -127.984375 15.265625 -127.984375 L 6.359375 -127.984375 L 6.359375 -129.796875 L 46.90625 -129.796875 L 90.71875 -23.265625 L 128.34375 -129.796875 L 164.890625 -129.796875 L 164.890625 -127.984375 L 161.078125 -127.984375 C 156.710938 -127.984375 153.378906 -127.015625 151.078125 -125.078125 C 148.773438 -123.140625 147.625 -119.867188 147.625 -115.265625 L 147.625 -14.546875 C 147.625 -9.941406 148.773438 -6.664062 151.078125 -4.71875 C 153.378906 -2.78125 156.710938 -1.8125 161.078125 -1.8125 L 164.890625 -1.8125 L 164.890625 0 L 113.8125 0 L 113.8125 -1.8125 L 114.71875 -1.8125 C 118.59375 -1.8125 121.648438 -2.75 123.890625 -4.625 C 126.128906 -6.507812 127.25 -9.695312 127.25 -14.1875 L 127.25 -121.078125 L 84.71875 0 L 79.078125 0 L 30.359375 -119.078125 L 30.359375 -14.546875 C 30.359375 -9.941406 31.566406 -6.664062 33.984375 -4.71875 C 36.410156 -2.78125 40.050781 -1.8125 44.90625 -1.8125 L 49.265625 -1.8125 L 49.265625 0 Z M 6.359375 0 "/></g></g></g><g fill="#fefefe" fill-opacity="1"><g transform="translate(28.057419, 251.840587)"><g><path d="M 2.453125 -0.800781 C 1.890625 -0.800781 1.40625 -1.082031 1.378906 -1.695312 L 0.226562 -1.695312 C 0.234375 -0.4375 1.269531 0.121094 2.40625 0.121094 C 3.457031 0.121094 4.539062 -0.324219 4.539062 -1.535156 C 4.539062 -3.496094 1.566406 -2.835938 1.566406 -3.753906 C 1.566406 -4.140625 2.011719 -4.289062 2.332031 -4.289062 C 2.898438 -4.289062 3.207031 -4.117188 3.269531 -3.578125 L 4.367188 -3.578125 C 4.328125 -4.753906 3.375 -5.222656 2.316406 -5.222656 C 1.378906 -5.222656 0.394531 -4.722656 0.394531 -3.664062 C 0.394531 -1.761719 3.367188 -2.40625 3.367188 -1.40625 C 3.367188 -0.945312 2.808594 -0.800781 2.453125 -0.800781 Z M 2.453125 -0.800781 "/></g></g></g><g fill="#fefefe" fill-opacity="1"><g transform="translate(38.636299, 251.840587)"><g><path d="M 4.425781 -2.582031 C 4.425781 -1.785156 3.707031 -1.058594 2.914062 -1.058594 C 2.117188 -1.058594 1.398438 -1.785156 1.398438 -2.582031 C 1.398438 -3.375 2.117188 -4.09375 2.914062 -4.09375 C 3.707031 -4.09375 4.425781 -3.375 4.425781 -2.582031 Z M 5.5625 -2.574219 C 5.5625 -3.996094 4.335938 -5.222656 2.914062 -5.222656 C 1.492188 -5.222656 0.265625 -3.996094 0.265625 -2.574219 C 0.265625 -1.148438 1.492188 0.0742188 2.914062 0.0742188 C 4.335938 0.0742188 5.5625 -1.148438 5.5625 -2.574219 Z M 5.5625 -2.574219 "/></g></g></g><g fill="#fefefe" fill-opacity="1"><g transform="translate(50.274582, 251.840587)"><g><path d="M 3.359375 -2.066406 L 3.359375 -3.09375 L 1.589844 -3.09375 L 1.589844 -4.117188 L 3.433594 -4.117188 L 3.433594 -5.144531 L 0.453125 -5.144531 L 0.453125 0 L 1.589844 0 L 1.589844 -2.066406 Z M 3.359375 -2.066406 "/></g></g></g><g fill="#fefefe" fill-opacity="1"><g transform="translate(59.899998, 251.840587)"><g><path d="M 2.640625 -4.117188 L 4.109375 -4.117188 L 4.109375 -5.144531 L 0.0390625 -5.144531 L 0.0390625 -4.117188 L 1.503906 -4.117188 L 1.503906 0 L 2.640625 0 Z M 2.640625 -4.117188 "/></g></g></g><g fill="#fefefe" fill-opacity="1"><g transform="translate(69.858369, 251.840587)"><g><path d="M 6.871094 -5.144531 L 5.621094 -5.144531 L 5.015625 -1.597656 L 4.011719 -5.144531 L 2.898438 -5.144531 L 1.890625 -1.597656 L 1.285156 -5.144531 L 0.0390625 -5.144531 L 1.035156 0 L 2.382812 0 L 3.457031 -3.609375 L 4.523438 0 L 5.871094 0 Z M 6.871094 -5.144531 "/></g></g></g><g fill="#fefefe" fill-opacity="1"><g transform="translate(82.578755, 251.840587)"><g><path d="M 3.253906 -1.96875 L 1.953125 -1.96875 L 2.601562 -3.796875 Z M 5.175781 0 L 3.085938 -5.144531 L 2.125 -5.144531 L 0.0390625 0 L 1.257812 0 L 1.625 -1.035156 L 3.585938 -1.035156 L 3.957031 0 Z M 5.175781 0 "/></g></g></g><g fill="#fefefe" fill-opacity="1"><g transform="translate(93.604094, 251.840587)"><g><path d="M 1.589844 -1.839844 L 1.597656 -1.839844 L 2.824219 0 L 4.261719 0 L 2.785156 -1.890625 C 3.433594 -2.050781 3.957031 -2.625 3.957031 -3.496094 C 3.957031 -4.472656 3.214844 -5.144531 2.382812 -5.144531 L 0.453125 -5.144531 L 0.453125 0 L 1.589844 0 Z M 2.195312 -4.253906 C 2.527344 -4.253906 2.875 -3.964844 2.875 -3.496094 C 2.875 -3.003906 2.527344 -2.730469 2.195312 -2.730469 L 1.589844 -2.730469 L 1.589844 -4.253906 Z M 2.195312 -4.253906 "/></g></g></g><g fill="#fefefe" fill-opacity="1"><g transform="translate(103.585165, 251.840587)"><g><path d="M 3.433594 -1.027344 L 1.589844 -1.027344 L 1.589844 -2.066406 L 3.359375 -2.066406 L 3.359375 -3.09375 L 1.589844 -3.09375 L 1.589844 -4.117188 L 3.433594 -4.117188 L 3.433594 -5.144531 L 0.453125 -5.144531 L 0.453125 0 L 3.433594 0 Z M 3.433594 -1.027344 "/></g></g></g><g fill="#fefefe" fill-opacity="1"><g transform="translate(113.286252, 251.840587)"><g><path d="M 2.460938 -1.363281 L 2.460938 -1.988281 L 0.113281 -1.988281 L 0.113281 -1.363281 Z M 2.460938 -1.363281 "/></g></g></g><g fill="#fefefe" fill-opacity="1"><g transform="translate(121.670651, 251.840587)"><g><path d="M 3.433594 -1.027344 L 1.589844 -1.027344 L 1.589844 -2.066406 L 3.359375 -2.066406 L 3.359375 -3.09375 L 1.589844 -3.09375 L 1.589844 -4.117188 L 3.433594 -4.117188 L 3.433594 -5.144531 L 0.453125 -5.144531 L 0.453125 0 L 3.433594 0 Z M 3.433594 -1.027344 "/></g></g></g><g fill="#fefefe" fill-opacity="1"><g transform="translate(131.371739, 251.840587)"><g><path d="M 4.496094 0 L 4.496094 -5.144531 L 3.359375 -5.144531 L 3.359375 -1.9375 L 1.589844 -5.144531 L 0.453125 -5.144531 L 0.453125 0 L 1.589844 0 L 1.589844 -3.207031 L 3.359375 0 Z M 4.496094 0 "/></g></g></g><g fill="#fefefe" fill-opacity="1"><g transform="translate(142.132228, 251.840587)"><g><path d="M 3.027344 -4.160156 C 3.527344 -4.160156 4.039062 -3.957031 4.289062 -3.414062 L 5.539062 -3.414062 C 5.183594 -4.480469 4.160156 -5.222656 3.027344 -5.222656 C 1.574219 -5.222656 0.378906 -4.027344 0.378906 -2.574219 C 0.378906 -1.121094 1.574219 0.0742188 3.027344 0.0742188 C 4.496094 0.0742188 5.667969 -1.113281 5.667969 -2.574219 L 5.667969 -2.746094 L 3.132812 -2.746094 L 3.132812 -1.890625 L 4.441406 -1.890625 C 4.160156 -1.113281 3.527344 -0.953125 3.027344 -0.953125 C 2.210938 -0.953125 1.527344 -1.6875 1.527344 -2.558594 C 1.527344 -3.429688 2.210938 -4.160156 3.027344 -4.160156 Z M 3.027344 -4.160156 "/></g></g></g><g fill="#fefefe" fill-opacity="1"><g transform="translate(153.876453, 251.840587)"><g><path d="M 1.589844 0 L 1.589844 -5.144531 L 0.453125 -5.144531 L 0.453125 0 Z M 1.589844 0 "/></g></g></g><g fill="#fefefe" fill-opacity="1"><g transform="translate(161.731146, 251.840587)"><g><path d="M 4.496094 0 L 4.496094 -5.144531 L 3.359375 -5.144531 L 3.359375 -1.9375 L 1.589844 -5.144531 L 0.453125 -5.144531 L 0.453125 0 L 1.589844 0 L 1.589844 -3.207031 L 3.359375 0 Z M 4.496094 0 "/></g></g></g><g fill="#fefefe" fill-opacity="1"><g transform="translate(172.491636, 251.840587)"><g><path d="M 3.433594 -1.027344 L 1.589844 -1.027344 L 1.589844 -2.066406 L 3.359375 -2.066406 L 3.359375 -3.09375 L 1.589844 -3.09375 L 1.589844 -4.117188 L 3.433594 -4.117188 L 3.433594 -5.144531 L 0.453125 -5.144531 L 0.453125 0 L 3.433594 0 Z M 3.433594 -1.027344 "/></g></g></g><g fill="#fefefe" fill-opacity="1"><g transform="translate(182.192723, 251.840587)"><g><path d="M 3.433594 -1.027344 L 1.589844 -1.027344 L 1.589844 -2.066406 L 3.359375 -2.066406 L 3.359375 -3.09375 L 1.589844 -3.09375 L 1.589844 -4.117188 L 3.433594 -4.117188 L 3.433594 -5.144531 L 0.453125 -5.144531 L 0.453125 0 L 3.433594 0 Z M 3.433594 -1.027344 "/></g></g></g><g fill="#fefefe" fill-opacity="1"><g transform="translate(191.89381, 251.840587)"><g><path d="M 1.589844 -1.839844 L 1.597656 -1.839844 L 2.824219 0 L 4.261719 0 L 2.785156 -1.890625 C 3.433594 -2.050781 3.957031 -2.625 3.957031 -3.496094 C 3.957031 -4.472656 3.214844 -5.144531 2.382812 -5.144531 L 0.453125 -5.144531 L 0.453125 0 L 1.589844 0 Z M 2.195312 -4.253906 C 2.527344 -4.253906 2.875 -3.964844 2.875 -3.496094 C 2.875 -3.003906 2.527344 -2.730469 2.195312 -2.730469 L 1.589844 -2.730469 L 1.589844 -4.253906 Z M 2.195312 -4.253906 "/></g></g></g><g clip-path="url(#90466c0937)"><path fill="#0d2438" d="M 33.507812 200.605469 L 350.5 200.605469 L 350.5 237.519531 L 33.507812 237.519531 Z M 33.507812 200.605469 " fill-opacity="1" fill-rule="nonzero"/></g><g fill="#fefefe" fill-opacity="1"><g transform="translate(96.320572, 230.196592)"><g><path d="M 8.277344 0.0898438 C 15.800781 -3.242188 20.40625 -13.625 23.082031 -20.316406 C 23.101562 -20.429688 23.214844 -20.472656 23.328125 -20.449219 C 23.445312 -20.429688 23.511719 -20.316406 23.511719 -20.203125 C 22.695312 -13.332031 21.0625 -4.375 20.65625 -2.222656 C 20.609375 -1.972656 20.746094 -1.699219 20.996094 -1.585938 C 21.242188 -1.472656 21.539062 -1.542969 21.699219 -1.746094 C 24.53125 -5.167969 29.609375 -13.445312 32.988281 -19.160156 C 33.054688 -19.25 33.191406 -19.292969 33.285156 -19.25 C 33.398438 -19.203125 33.441406 -19.089844 33.417969 -18.976562 C 30.652344 -8.886719 28.90625 -0.40625 32.21875 0.636719 C 32.535156 0.726562 32.875 0.542969 32.964844 0.226562 C 33.054688 -0.0898438 32.898438 -0.40625 32.582031 -0.519531 C 29.65625 -1.40625 33.851562 -16.164062 35.640625 -22.445312 C 35.890625 -23.398438 36.140625 -24.257812 36.367188 -25.054688 C 36.433594 -25.347656 36.277344 -25.644531 36.003906 -25.757812 C 35.710938 -25.871094 35.390625 -25.757812 35.253906 -25.484375 C 34.484375 -23.988281 27.863281 -12.539062 23.238281 -5.828125 C 23.148438 -5.667969 22.945312 -5.621094 22.785156 -5.691406 C 22.628906 -5.757812 22.535156 -5.917969 22.558594 -6.097656 C 23.535156 -11.585938 25.007812 -20.675781 25.121094 -25.460938 C 25.144531 -25.734375 24.960938 -25.984375 24.691406 -26.050781 C 24.417969 -26.117188 24.144531 -25.984375 24.011719 -25.734375 C 23.671875 -25.074219 23.214844 -23.941406 22.648438 -22.492188 C 20.179688 -16.1875 15.554688 -4.421875 7.800781 -0.996094 C 5.53125 0 3.855469 -0.453125 3.015625 -1.203125 C 2.378906 -1.769531 2.152344 -2.652344 2.425781 -3.445312 C 2.96875 -5.054688 5.191406 -6.167969 8.34375 -6.4375 C 8.503906 -6.4375 8.636719 -6.507812 8.75 -6.644531 C 8.84375 -6.757812 8.910156 -6.914062 8.886719 -7.074219 C 8.863281 -7.390625 8.570312 -7.640625 8.253906 -7.617188 C 2.992188 -7.164062 1.632812 -4.828125 1.292969 -3.855469 C 0.863281 -2.585938 1.222656 -1.203125 2.222656 -0.316406 C 3.0625 0.40625 4.148438 0.816406 5.28125 0.769531 C 6.304688 0.75 7.347656 0.519531 8.277344 0.0898438 Z M 8.277344 0.0898438 "/></g></g></g><g fill="#fefefe" fill-opacity="1"><g transform="translate(131.268663, 230.196592)"><g><path d="M 18.953125 -5.488281 C 18.726562 -5.734375 18.34375 -5.757812 18.09375 -5.53125 C 18.023438 -5.464844 11.289062 0.589844 7.121094 -2.152344 C 5.464844 -3.242188 5.054688 -5.871094 5.054688 -5.894531 C 5.035156 -6.167969 4.828125 -6.371094 4.558594 -6.417969 C 4.308594 -6.4375 4.035156 -6.304688 3.921875 -6.078125 C 2.855469 -3.71875 0.976562 -0.726562 0.453125 -1.066406 C 0.40625 -1.066406 0.316406 -1.15625 0.25 -1.316406 C -0.0234375 -2.0625 0.0664062 -2.878906 0.453125 -3.582031 C 1.316406 -5.351562 2.902344 -6.621094 4.804688 -7.097656 C 5.011719 -7.140625 5.167969 -7.300781 5.238281 -7.503906 C 5.304688 -7.707031 5.238281 -7.933594 5.101562 -8.09375 C 4.941406 -8.230469 4.738281 -8.296875 4.535156 -8.253906 C 2.265625 -7.707031 0.386719 -6.167969 -0.636719 -4.082031 C -1.179688 -3.0625 -1.246094 -1.835938 -0.816406 -0.769531 C -0.613281 -0.25 -0.113281 0.113281 0.453125 0.113281 L 0.476562 0.113281 C 1.585938 0.0898438 2.96875 -1.292969 3.921875 -2.789062 C 4.035156 -2.96875 4.238281 -3.0625 4.445312 -3.039062 C 4.648438 -3.039062 4.828125 -2.925781 4.921875 -2.742188 C 5.304688 -2.109375 5.828125 -1.5625 6.460938 -1.179688 C 11.402344 2.109375 18.589844 -4.375 18.910156 -4.648438 C 19.023438 -4.761719 19.089844 -4.921875 19.089844 -5.054688 C 19.113281 -5.214844 19.042969 -5.375 18.953125 -5.488281 Z M 18.953125 -5.488281 "/></g></g></g><g fill="#fefefe" fill-opacity="1"><g transform="translate(149.58128, 230.196592)"><g><path d="M 19.816406 -5.644531 C 19.679688 -5.734375 19.542969 -5.804688 19.386719 -5.804688 C 19.226562 -5.78125 19.066406 -5.714844 18.976562 -5.601562 C 18.910156 -5.554688 13.921875 -0.226562 9.589844 -1.972656 C 8.660156 -2.472656 7.914062 -3.21875 7.390625 -4.148438 C 7.210938 -4.445312 6.984375 -4.738281 6.710938 -5.011719 C 6.417969 -5.375 5.960938 -5.578125 5.488281 -5.601562 C 4.332031 -5.691406 2.925781 -4.921875 1.246094 -3.332031 C 1.203125 -3.289062 1.132812 -3.265625 1.066406 -3.308594 C 0.996094 -3.332031 0.953125 -3.421875 0.976562 -3.492188 L 1.472656 -5.714844 C 1.5625 -6.03125 1.359375 -6.371094 1.042969 -6.4375 C 0.726562 -6.507812 0.40625 -6.304688 0.316406 -5.984375 L -0.816406 -1.019531 C -0.882812 -0.75 -0.75 -0.476562 -0.5 -0.363281 C -0.25 -0.226562 0.046875 -0.292969 0.226562 -0.5 C 3.265625 -4.058594 4.804688 -4.398438 5.351562 -4.421875 C 5.894531 -4.445312 6.234375 -3.742188 6.417969 -3.46875 C 7.050781 -2.359375 8.003906 -1.449219 9.136719 -0.882812 C 14.214844 1.179688 19.613281 -4.558594 19.839844 -4.804688 C 20.066406 -5.035156 20.042969 -5.417969 19.816406 -5.644531 Z M 19.816406 -5.644531 "/></g></g></g><g fill="#fefefe" fill-opacity="1"><g transform="translate(168.460494, 230.196592)"><g><path d="M 16.527344 -6.4375 C 16.414062 -6.550781 16.277344 -6.597656 16.121094 -6.597656 C 15.960938 -6.597656 15.800781 -6.550781 15.6875 -6.4375 C 12.96875 -3.71875 9.113281 -2.472656 5.328125 -3.105469 C 5.035156 -3.175781 4.828125 -3.445312 4.875 -3.742188 C 5.054688 -4.828125 4.964844 -5.941406 4.332031 -6.304688 C 3.921875 -6.53125 3.308594 -6.550781 2.585938 -5.328125 C 2.3125 -4.921875 2.222656 -4.421875 2.3125 -3.945312 C 2.425781 -3.46875 2.71875 -3.039062 3.128906 -2.789062 C 3.378906 -2.585938 3.082031 -2.246094 2.925781 -2.085938 C 2.492188 -1.5625 1.746094 -1.472656 1.222656 -1.882812 C 0.566406 -2.175781 0.273438 -2.902344 0.519531 -3.558594 C 0.816406 -4.761719 1.996094 -5.804688 2.425781 -5.804688 C 2.742188 -5.804688 3.015625 -6.078125 3.015625 -6.394531 C 3.039062 -6.710938 2.765625 -6.984375 2.449219 -7.003906 L 2.425781 -7.003906 C 1.292969 -7.003906 -0.226562 -5.464844 -0.636719 -3.855469 C -1.019531 -2.675781 -0.476562 -1.382812 0.65625 -0.839844 C 1.089844 -0.589844 1.5625 -0.476562 2.0625 -0.453125 C 3.039062 -0.5 3.898438 -1.089844 4.308594 -1.996094 C 4.351562 -2.0625 4.464844 -2.109375 4.558594 -2.085938 C 7.4375 -1.222656 12.695312 -1.769531 16.527344 -5.578125 C 16.640625 -5.691406 16.710938 -5.847656 16.710938 -6.007812 C 16.710938 -6.167969 16.640625 -6.324219 16.527344 -6.4375 Z M 3.695312 -3.855469 C 3.445312 -4.082031 3.402344 -4.445312 3.605469 -4.714844 C 3.671875 -4.828125 3.71875 -4.898438 3.761719 -4.964844 C 3.785156 -4.601562 3.761719 -4.21875 3.695312 -3.855469 Z M 3.695312 -3.855469 "/></g></g></g><g fill="#fefefe" fill-opacity="1"><g transform="translate(184.121412, 230.196592)"><g><path d="M 17.886719 -5.417969 C 17.660156 -5.667969 17.300781 -5.691406 17.050781 -5.464844 C 17.003906 -5.441406 12.332031 -1.359375 8.910156 -1.90625 C 7.890625 -2.0625 7.003906 -2.675781 6.507812 -3.582031 C 6.078125 -4.375 5.28125 -4.875 4.398438 -4.964844 C 3.289062 -5.035156 2.0625 -4.375 0.769531 -3.015625 C 0.703125 -2.949219 0.589844 -2.925781 0.5 -2.96875 C 0.40625 -3.015625 0.363281 -3.105469 0.386719 -3.21875 C 0.453125 -3.648438 0.65625 -4.738281 0.75 -5.148438 C 0.75 -5.078125 0.90625 -5.394531 0.90625 -5.417969 C 2.835938 -8.046875 8.59375 -16.390625 6.347656 -19.066406 C 6.054688 -19.476562 5.507812 -19.65625 5.011719 -19.519531 C 4.558594 -19.386719 3.175781 -18.953125 1.042969 -11.382812 C 0.519531 -9.546875 0.046875 -7.574219 -0.339844 -5.714844 L -0.5 -5.507812 C -0.65625 -5.304688 -0.65625 -5.035156 -0.519531 -4.804688 C -0.863281 -3.128906 -1.089844 -1.585938 -1.203125 -0.40625 C -1.222656 -0.136719 -1.066406 0.113281 -0.816406 0.203125 C -0.566406 0.292969 -0.273438 0.203125 -0.113281 -0.0234375 C 2.199219 -3.378906 3.671875 -3.808594 4.332031 -3.785156 C 4.804688 -3.742188 5.238281 -3.445312 5.464844 -3.015625 C 6.144531 -1.792969 7.347656 -0.929688 8.75 -0.726562 C 12.695312 -0.113281 17.617188 -4.398438 17.84375 -4.578125 C 18.070312 -4.804688 18.09375 -5.167969 17.886719 -5.417969 Z M 5.351562 -18.386719 C 5.394531 -18.386719 5.417969 -18.320312 5.441406 -18.296875 C 6.53125 -17.074219 2.019531 -7.957031 1.449219 -8.320312 C 0.90625 -8.660156 4.398438 -18.386719 5.351562 -18.386719 Z M 5.351562 -18.386719 "/></g></g></g><g fill="#fefefe" fill-opacity="1"><g transform="translate(201.255494, 230.196592)"><g><path d="M 18.953125 -5.488281 C 18.726562 -5.734375 18.34375 -5.757812 18.09375 -5.53125 C 18.023438 -5.464844 11.289062 0.589844 7.121094 -2.152344 C 5.464844 -3.242188 5.054688 -5.871094 5.054688 -5.894531 C 5.035156 -6.167969 4.828125 -6.371094 4.558594 -6.417969 C 4.308594 -6.4375 4.035156 -6.304688 3.921875 -6.078125 C 2.855469 -3.71875 0.976562 -0.726562 0.453125 -1.066406 C 0.40625 -1.066406 0.316406 -1.15625 0.25 -1.316406 C -0.0234375 -2.0625 0.0664062 -2.878906 0.453125 -3.582031 C 1.316406 -5.351562 2.902344 -6.621094 4.804688 -7.097656 C 5.011719 -7.140625 5.167969 -7.300781 5.238281 -7.503906 C 5.304688 -7.707031 5.238281 -7.933594 5.101562 -8.09375 C 4.941406 -8.230469 4.738281 -8.296875 4.535156 -8.253906 C 2.265625 -7.707031 0.386719 -6.167969 -0.636719 -4.082031 C -1.179688 -3.0625 -1.246094 -1.835938 -0.816406 -0.769531 C -0.613281 -0.25 -0.113281 0.113281 0.453125 0.113281 L 0.476562 0.113281 C 1.585938 0.0898438 2.96875 -1.292969 3.921875 -2.789062 C 4.035156 -2.96875 4.238281 -3.0625 4.445312 -3.039062 C 4.648438 -3.039062 4.828125 -2.925781 4.921875 -2.742188 C 5.304688 -2.109375 5.828125 -1.5625 6.460938 -1.179688 C 11.402344 2.109375 18.589844 -4.375 18.910156 -4.648438 C 19.023438 -4.761719 19.089844 -4.921875 19.089844 -5.054688 C 19.113281 -5.214844 19.042969 -5.375 18.953125 -5.488281 Z M 18.953125 -5.488281 "/></g></g></g><g fill="#fefefe" fill-opacity="1"><g transform="translate(219.568111, 230.196592)"><g><path d="M 19.542969 -5.960938 C 19.429688 -6.078125 19.292969 -6.144531 19.136719 -6.144531 C 18.976562 -6.144531 18.816406 -6.078125 18.703125 -5.960938 C 14.78125 -2.132812 7.820312 -1.316406 6.324219 -2.199219 C 5.304688 -2.789062 5.417969 -3.492188 6.144531 -4.898438 C 6.484375 -5.578125 6.871094 -6.371094 6.210938 -6.847656 C 5.601562 -7.300781 5.011719 -7.003906 4.488281 -6.734375 C 3.742188 -6.304688 2.902344 -6.078125 2.019531 -6.078125 C 1.8125 -6.078125 1.632812 -6.4375 1.679688 -6.574219 C 2.949219 -9.363281 2.378906 -9.886719 2.175781 -10.089844 C 1.835938 -10.429688 1.316406 -10.40625 0.679688 -10.019531 C -0.363281 -9.273438 -0.816406 -7.933594 -0.453125 -6.6875 C -0.363281 -6.347656 -0.203125 -6.03125 0.0234375 -5.757812 C 0 -5.507812 0.113281 -5.28125 0.339844 -5.167969 C 0.476562 -5.101562 0.636719 -5.101562 0.792969 -5.148438 C 1.179688 -4.964844 1.609375 -4.875 2.039062 -4.875 C 2.96875 -4.851562 3.878906 -5.054688 4.691406 -5.507812 C 5.011719 -5.667969 5.125 -5.53125 5.078125 -5.441406 C 4.535156 -4.375 3.558594 -2.425781 5.734375 -1.15625 C 6.507812 -0.792969 7.367188 -0.636719 8.230469 -0.703125 C 11.402344 -0.703125 16.390625 -2.0625 19.519531 -5.125 C 19.632812 -5.214844 19.703125 -5.375 19.703125 -5.53125 C 19.726562 -5.691406 19.65625 -5.847656 19.542969 -5.960938 Z M 0.65625 -7.210938 C 0.519531 -7.867188 0.75 -8.546875 1.269531 -8.976562 C 1.109375 -8.367188 0.90625 -7.777344 0.65625 -7.1875 Z M 0.65625 -7.210938 "/></g></g></g><g fill="#fefefe" fill-opacity="1"><g transform="translate(238.152697, 230.196592)"><g/></g></g><g fill="#fefefe" fill-opacity="1"><g transform="translate(246.583753, 230.196592)"><g><path d="M 7.1875 -0.226562 C 13.421875 -0.703125 28.523438 -6.484375 28.976562 -17.886719 C 29.042969 -20.632812 27.707031 -23.214844 25.414062 -24.757812 C 21.628906 -27.570312 15.847656 -28.25 10.703125 -26.457031 C 4.738281 -24.417969 0.929688 -20.746094 0.476562 -16.640625 C 0.136719 -14.101562 1.359375 -11.585938 3.558594 -10.269531 C 5.148438 -9.339844 7.003906 -8.933594 8.820312 -9.136719 C 8.933594 -9.160156 9.046875 -9.113281 9.113281 -9.023438 C 9.183594 -8.933594 9.203125 -8.820312 9.183594 -8.730469 C 8.277344 -5.847656 7.324219 -2.96875 6.574219 -1.042969 C 6.507812 -0.863281 6.53125 -0.65625 6.644531 -0.476562 C 6.757812 -0.316406 6.9375 -0.226562 7.140625 -0.226562 Z M 10.496094 -8.976562 C 10.589844 -9.25 10.816406 -9.476562 11.109375 -9.566406 C 12.945312 -10.089844 14.667969 -10.882812 16.234375 -11.925781 C 16.414062 -12.039062 16.527344 -12.242188 16.503906 -12.46875 C 16.503906 -12.675781 16.371094 -12.878906 16.1875 -12.96875 C 15.984375 -13.058594 15.757812 -13.058594 15.574219 -12.921875 C 14.351562 -12.128906 13.035156 -11.472656 11.652344 -10.972656 C 11.539062 -10.929688 11.402344 -10.972656 11.3125 -11.0625 C 11.246094 -11.132812 11.199219 -11.269531 11.246094 -11.382812 C 12.445312 -15.371094 13.421875 -18.726562 13.445312 -18.773438 C 13.511719 -19.042969 13.398438 -19.339844 13.148438 -19.453125 C 12.921875 -19.589844 12.628906 -19.542969 12.425781 -19.339844 C 11.425781 -18.273438 9.792969 -18.046875 8.546875 -18.816406 C 8.277344 -19 7.914062 -18.910156 7.730469 -18.636719 C 7.550781 -18.34375 7.640625 -17.980469 7.933594 -17.796875 C 8.910156 -17.164062 10.132812 -16.980469 11.246094 -17.300781 C 11.359375 -17.34375 11.496094 -17.320312 11.585938 -17.230469 C 11.652344 -17.164062 11.699219 -17.027344 11.652344 -16.914062 C 11.199219 -15.394531 10.566406 -13.21875 9.863281 -10.90625 C 9.773438 -10.632812 9.523438 -10.429688 9.25 -10.382812 C 7.503906 -10.089844 5.714844 -10.40625 4.195312 -11.269531 C 2.378906 -12.355469 1.382812 -14.417969 1.65625 -16.527344 C 2.039062 -20.15625 5.578125 -23.445312 11.085938 -25.347656 C 15.894531 -27.003906 21.222656 -26.390625 24.714844 -23.804688 C 26.664062 -22.515625 27.820312 -20.292969 27.796875 -17.933594 C 27.410156 -8.253906 14.988281 -2.765625 8.570312 -1.609375 C 8.457031 -1.585938 8.34375 -1.632812 8.277344 -1.722656 C 8.207031 -1.8125 8.183594 -1.925781 8.207031 -2.039062 C 8.910156 -4.011719 9.726562 -6.507812 10.496094 -8.976562 Z M 10.496094 -8.976562 "/></g></g></g><g fill="#fefefe" fill-opacity="1"><g transform="translate(274.256653, 230.196592)"><g><path d="M 2.222656 -0.25 L 2.425781 -0.566406 C 2.605469 -0.839844 2.539062 -1.203125 2.265625 -1.382812 C 1.972656 -1.5625 1.609375 -1.496094 1.429688 -1.222656 L 1.222656 -0.90625 C 1.109375 -0.726562 1.089844 -0.5 1.203125 -0.292969 C 1.292969 -0.113281 1.496094 0 1.722656 0 C 1.90625 0.0234375 2.109375 -0.0898438 2.222656 -0.25 Z M 2.222656 -0.25 "/></g></g></g></svg>