<svg xmlns="http://www.w3.org/2000/svg" xmlns:xlink="http://www.w3.org/1999/xlink" width="500" zoomAndPan="magnify" viewBox="0 0 375 374.999991" height="500" preserveAspectRatio="xMidYMid meet" version="1.0"><defs><g/><clipPath id="566acab940"><path d="M 33.507812 200.605469 L 350.742188 200.605469 L 350.742188 237.679688 L 33.507812 237.679688 Z M 33.507812 200.605469 " clip-rule="nonzero"/></clipPath></defs><g fill="#3b3937" fill-opacity="1"><g transform="translate(176.410085, 273.355588)"><g><path d="M 6.359375 0 L 6.359375 -1.8125 L 10.1875 -1.8125 C 14.425781 -1.8125 17.726562 -2.78125 20.09375 -4.71875 C 22.457031 -6.664062 23.640625 -9.941406 23.640625 -14.546875 L 23.640625 -115.984375 C 23.640625 -120.222656 22.457031 -123.28125 20.09375 -125.15625 C 17.726562 -127.039062 14.425781 -127.984375 10.1875 -127.984375 L 6.359375 -127.984375 L 6.359375 -129.796875 L 63.265625 -129.796875 C 82.410156 -129.796875 97.316406 -124.25 107.984375 -113.15625 C 118.648438 -102.070312 123.984375 -86.226562 123.984375 -65.625 C 123.984375 -52.414062 121.707031 -40.875 117.15625 -31 C 112.613281 -21.125 105.828125 -13.488281 96.796875 -8.09375 C 87.773438 -2.695312 76.597656 0 63.265625 0 Z M 44.71875 -1.8125 L 59.078125 -1.8125 C 73.742188 -1.8125 84.378906 -6.8125 90.984375 -16.8125 C 97.585938 -26.8125 100.890625 -43.082031 100.890625 -65.625 C 100.890625 -87.5625 97.617188 -103.4375 91.078125 -113.25 C 84.535156 -123.070312 73.929688 -127.984375 59.265625 -127.984375 L 44.71875 -127.984375 Z M 44.71875 -1.8125 "/></g></g></g><g fill="#3b3937" fill-opacity="1"><g transform="translate(28.258838, 216.929235)"><g><path d="M 6.359375 0 L 6.359375 -1.8125 L 15.265625 -1.8125 C 19.390625 -1.8125 22.632812 -2.78125 25 -4.71875 C 27.363281 -6.664062 28.546875 -9.878906 28.546875 -14.359375 L 28.546875 -115.984375 C 28.546875 -120.222656 27.363281 -123.28125 25 -125.15625 C 22.632812 -127.039062 19.390625 -127.984375 15.265625 -127.984375 L 6.359375 -127.984375 L 6.359375 -129.796875 L 46.90625 -129.796875 L 90.71875 -23.265625 L 128.34375 -129.796875 L 164.890625 -129.796875 L 164.890625 -127.984375 L 161.078125 -127.984375 C 156.710938 -127.984375 153.378906 -127.015625 151.078125 -125.078125 C 148.773438 -123.140625 147.625 -119.867188 147.625 -115.265625 L 147.625 -14.546875 C 147.625 -9.941406 148.773438 -6.664062 151.078125 -4.71875 C 153.378906 -2.78125 156.710938 -1.8125 161.078125 -1.8125 L 164.890625 -1.8125 L 164.890625 0 L 113.8125 0 L 113.8125 -1.8125 L 114.71875 -1.8125 C 118.59375 -1.8125 121.648438 -2.75 123.890625 -4.625 C 126.128906 -6.507812 127.25 -9.695312 127.25 -14.1875 L 127.25 -121.078125 L 84.71875 0 L 79.078125 0 L 30.359375 -119.078125 L 30.359375 -14.546875 C 30.359375 -9.941406 31.566406 -6.664062 33.984375 -4.71875 C 36.410156 -2.78125 40.050781 -1.8125 44.90625 -1.8125 L 49.265625 -1.8125 L 49.265625 0 Z M 6.359375 0 "/></g></g></g><g fill="#3b3937" fill-opacity="1"><g transform="translate(32.05817, 248.606489)"><g><path d="M 1.988281 -2.421875 C 2.65625 -2.261719 3.109375 -2.089844 3.351562 -1.890625 C 3.519531 -1.753906 3.601562 -1.582031 3.601562 -1.371094 C 3.601562 -1.15625 3.554688 -0.984375 3.464844 -0.863281 C 3.238281 -0.542969 2.832031 -0.386719 2.253906 -0.386719 C 1.453125 -0.386719 1 -0.660156 0.902344 -1.203125 L 0.28125 -1.203125 C 0.460938 -0.332031 1.121094 0.0976562 2.253906 0.0976562 C 2.761719 0.0976562 3.1875 -0.0078125 3.527344 -0.234375 C 3.933594 -0.5 4.148438 -0.894531 4.148438 -1.40625 C 4.148438 -1.832031 3.980469 -2.15625 3.648438 -2.382812 C 3.414062 -2.550781 3.035156 -2.703125 2.511719 -2.835938 C 1.984375 -2.972656 1.640625 -3.085938 1.484375 -3.171875 C 1.136719 -3.34375 0.960938 -3.585938 0.96875 -3.90625 C 0.96875 -4.070312 1 -4.214844 1.074219 -4.320312 C 1.269531 -4.617188 1.621094 -4.765625 2.117188 -4.765625 C 2.824219 -4.765625 3.222656 -4.539062 3.328125 -4.101562 L 3.90625 -4.101562 C 3.714844 -4.84375 3.117188 -5.222656 2.117188 -5.222656 C 1.664062 -5.222656 1.265625 -5.101562 0.929688 -4.859375 C 0.589844 -4.617188 0.417969 -4.261719 0.417969 -3.777344 C 0.417969 -3.117188 0.945312 -2.664062 1.988281 -2.421875 Z M 1.988281 -2.421875 "/></g></g></g><g fill="#3b3937" fill-opacity="1"><g transform="translate(42.213283, 248.606489)"><g><path d="M 5.101562 -2.589844 C 5.101562 -1.996094 4.886719 -1.5 4.480469 -1.089844 C 4.0625 -0.671875 3.5625 -0.46875 2.980469 -0.46875 C 2.398438 -0.46875 1.898438 -0.671875 1.492188 -1.089844 C 1.074219 -1.5 0.871094 -1.996094 0.871094 -2.589844 C 0.871094 -3.164062 1.074219 -3.664062 1.492188 -4.078125 C 1.898438 -4.488281 2.398438 -4.699219 2.980469 -4.699219 C 3.5625 -4.699219 4.0625 -4.488281 4.480469 -4.078125 C 4.886719 -3.664062 5.101562 -3.164062 5.101562 -2.589844 Z M 5.628906 -2.589844 C 5.628906 -2.953125 5.554688 -3.292969 5.417969 -3.617188 C 5.28125 -3.933594 5.09375 -4.214844 4.851562 -4.457031 C 4.609375 -4.691406 4.328125 -4.878906 4.011719 -5.015625 C 3.683594 -5.152344 3.34375 -5.230469 2.980469 -5.230469 C 2.617188 -5.230469 2.269531 -5.152344 1.953125 -5.015625 C 1.632812 -4.878906 1.355469 -4.691406 1.113281 -4.457031 C 0.871094 -4.214844 0.679688 -3.933594 0.542969 -3.617188 C 0.410156 -3.292969 0.339844 -2.953125 0.339844 -2.589844 C 0.339844 -2.226562 0.410156 -1.875 0.542969 -1.558594 C 0.679688 -1.234375 0.871094 -0.953125 1.113281 -0.710938 C 1.355469 -0.46875 1.632812 -0.28125 1.953125 -0.144531 C 2.269531 -0.0078125 2.617188 0.0585938 2.980469 0.0585938 C 3.34375 0.0585938 3.683594 -0.0078125 4.011719 -0.144531 C 4.328125 -0.28125 4.609375 -0.46875 4.851562 -0.710938 C 5.09375 -0.953125 5.28125 -1.234375 5.417969 -1.558594 C 5.554688 -1.875 5.628906 -2.226562 5.628906 -2.589844 Z M 5.628906 -2.589844 "/></g></g></g><g fill="#3b3937" fill-opacity="1"><g transform="translate(53.995339, 248.606489)"><g><path d="M 3.625 -4.652344 L 3.625 -5.144531 L 0.566406 -5.144531 L 0.566406 0 L 1.097656 0 L 1.097656 -2.324219 L 3.550781 -2.324219 L 3.550781 -2.824219 L 1.097656 -2.824219 L 1.097656 -4.652344 Z M 3.625 -4.652344 "/></g></g></g><g fill="#3b3937" fill-opacity="1"><g transform="translate(63.582912, 248.606489)"><g><path d="M 0.152344 -4.667969 L 1.398438 -4.667969 L 1.398438 -0.015625 L 1.929688 -0.015625 L 1.929688 -4.667969 L 3.179688 -4.667969 L 3.179688 -5.160156 L 0.152344 -5.160156 Z M 0.152344 -4.667969 "/></g></g></g><g fill="#3b3937" fill-opacity="1"><g transform="translate(72.724029, 248.606489)"><g><path d="M 4.652344 0.417969 L 5.847656 -5.144531 L 5.3125 -5.144531 L 4.511719 -1.40625 L 2.964844 -5.449219 L 1.414062 -1.40625 L 0.621094 -5.144531 L 0.0742188 -5.144531 L 1.277344 0.417969 L 2.964844 -4.0625 Z M 4.652344 0.417969 "/></g></g></g><g fill="#3b3937" fill-opacity="1"><g transform="translate(84.460691, 248.606489)"><g><path d="M 1.398438 -1.890625 L 2.339844 -4.261719 L 3.269531 -1.890625 Z M 4.59375 0 L 2.339844 -5.5 L 0.0742188 0 L 0.652344 0 L 1.203125 -1.398438 L 3.464844 -1.398438 L 4.019531 0 Z M 4.59375 0 "/></g></g></g><g fill="#3b3937" fill-opacity="1"><g transform="translate(94.941197, 248.606489)"><g><path d="M 1.097656 -2.542969 L 1.097656 -4.636719 L 2.292969 -4.636719 C 2.601562 -4.636719 2.851562 -4.539062 3.042969 -4.34375 C 3.222656 -4.148438 3.320312 -3.90625 3.320312 -3.601562 C 3.320312 -3.300781 3.222656 -3.050781 3.027344 -2.84375 C 2.832031 -2.640625 2.589844 -2.542969 2.292969 -2.542969 Z M 3.851562 -3.59375 C 3.851562 -4.035156 3.683594 -4.410156 3.367188 -4.707031 C 3.058594 -4.996094 2.671875 -5.144531 2.21875 -5.144531 L 0.566406 -5.144531 L 0.566406 0 L 1.097656 0 L 1.097656 -2.035156 L 1.710938 -2.035156 L 3.222656 0 L 3.933594 0 L 2.347656 -2.035156 C 2.746094 -2.058594 3.085938 -2.203125 3.367188 -2.46875 C 3.683594 -2.761719 3.851562 -3.140625 3.851562 -3.59375 Z M 3.851562 -3.59375 "/></g></g></g><g fill="#3b3937" fill-opacity="1"><g transform="translate(104.869299, 248.606489)"><g><path d="M 3.625 0 L 3.625 -0.492188 L 1.097656 -0.492188 L 1.097656 -2.324219 L 3.550781 -2.324219 L 3.550781 -2.824219 L 1.097656 -2.824219 L 1.097656 -4.652344 L 3.625 -4.652344 L 3.625 -5.144531 L 0.566406 -5.144531 L 0.566406 0 Z M 3.625 0 "/></g></g></g><g fill="#3b3937" fill-opacity="1"><g transform="translate(114.873069, 248.606489)"><g><path d="M 2.824219 -1.46875 L 2.824219 -1.898438 L 0.289062 -1.898438 L 0.289062 -1.46875 Z M 2.824219 -1.46875 "/></g></g></g><g fill="#3b3937" fill-opacity="1"><g transform="translate(123.787164, 248.606489)"><g><path d="M 3.625 0 L 3.625 -0.492188 L 1.097656 -0.492188 L 1.097656 -2.324219 L 3.550781 -2.324219 L 3.550781 -2.824219 L 1.097656 -2.824219 L 1.097656 -4.652344 L 3.625 -4.652344 L 3.625 -5.144531 L 0.566406 -5.144531 L 0.566406 0 Z M 3.625 0 "/></g></g></g><g fill="#3b3937" fill-opacity="1"><g transform="translate(133.790934, 248.606489)"><g><path d="M 1.097656 -3.792969 L 3.988281 0.316406 L 3.988281 -5.144531 L 3.457031 -5.144531 L 3.457031 -1.363281 L 0.566406 -5.472656 L 0.566406 0 L 1.097656 0 Z M 1.097656 -3.792969 "/></g></g></g><g fill="#3b3937" fill-opacity="1"><g transform="translate(144.157928, 248.606489)"><g><path d="M 5.644531 -2.40625 L 2.964844 -2.40625 L 2.964844 -1.945312 L 5.054688 -1.945312 C 4.894531 -1.5 4.632812 -1.136719 4.253906 -0.871094 C 3.875 -0.597656 3.449219 -0.46875 2.988281 -0.46875 C 2.398438 -0.46875 1.898438 -0.671875 1.484375 -1.089844 C 1.074219 -1.503906 0.871094 -2.011719 0.871094 -2.59375 C 0.871094 -3.179688 1.074219 -3.675781 1.492188 -4.09375 C 1.898438 -4.503906 2.398438 -4.714844 2.988281 -4.714844 C 3.429688 -4.714844 3.828125 -4.585938 4.183594 -4.335938 C 4.546875 -4.085938 4.804688 -3.761719 4.972656 -3.34375 L 5.53125 -3.34375 C 5.359375 -3.914062 5.03125 -4.367188 4.5625 -4.714844 C 4.09375 -5.0625 3.550781 -5.242188 2.9375 -5.242188 C 2.601562 -5.242188 2.277344 -5.167969 1.960938 -5.03125 C 1.632812 -4.894531 1.355469 -4.707031 1.113281 -4.464844 C 0.871094 -4.222656 0.679688 -3.941406 0.542969 -3.625 C 0.410156 -3.300781 0.339844 -2.953125 0.339844 -2.589844 C 0.339844 -2.226562 0.410156 -1.875 0.542969 -1.558594 C 0.679688 -1.234375 0.871094 -0.953125 1.113281 -0.710938 C 1.355469 -0.46875 1.632812 -0.28125 1.960938 -0.144531 C 2.277344 -0.0078125 2.625 0.0585938 2.988281 0.0585938 C 3.609375 0.0585938 4.167969 -0.136719 4.667969 -0.539062 C 5.167969 -0.945312 5.480469 -1.460938 5.59375 -2.089844 Z M 5.644531 -2.40625 "/></g></g></g><g fill="#3b3937" fill-opacity="1"><g transform="translate(155.955123, 248.606489)"><g><path d="M 1.097656 0 L 1.097656 -5.144531 L 0.566406 -5.144531 L 0.566406 0 Z M 1.097656 0 "/></g></g></g><g fill="#3b3937" fill-opacity="1"><g transform="translate(163.431455, 248.606489)"><g><path d="M 1.097656 -3.792969 L 3.988281 0.316406 L 3.988281 -5.144531 L 3.457031 -5.144531 L 3.457031 -1.363281 L 0.566406 -5.472656 L 0.566406 0 L 1.097656 0 Z M 1.097656 -3.792969 "/></g></g></g><g fill="#3b3937" fill-opacity="1"><g transform="translate(173.79845, 248.606489)"><g><path d="M 3.625 0 L 3.625 -0.492188 L 1.097656 -0.492188 L 1.097656 -2.324219 L 3.550781 -2.324219 L 3.550781 -2.824219 L 1.097656 -2.824219 L 1.097656 -4.652344 L 3.625 -4.652344 L 3.625 -5.144531 L 0.566406 -5.144531 L 0.566406 0 Z M 3.625 0 "/></g></g></g><g fill="#3b3937" fill-opacity="1"><g transform="translate(183.802219, 248.606489)"><g><path d="M 3.625 0 L 3.625 -0.492188 L 1.097656 -0.492188 L 1.097656 -2.324219 L 3.550781 -2.324219 L 3.550781 -2.824219 L 1.097656 -2.824219 L 1.097656 -4.652344 L 3.625 -4.652344 L 3.625 -5.144531 L 0.566406 -5.144531 L 0.566406 0 Z M 3.625 0 "/></g></g></g><g fill="#3b3937" fill-opacity="1"><g transform="translate(193.805989, 248.606489)"><g><path d="M 1.097656 -2.542969 L 1.097656 -4.636719 L 2.292969 -4.636719 C 2.601562 -4.636719 2.851562 -4.539062 3.042969 -4.34375 C 3.222656 -4.148438 3.320312 -3.90625 3.320312 -3.601562 C 3.320312 -3.300781 3.222656 -3.050781 3.027344 -2.84375 C 2.832031 -2.640625 2.589844 -2.542969 2.292969 -2.542969 Z M 3.851562 -3.59375 C 3.851562 -4.035156 3.683594 -4.410156 3.367188 -4.707031 C 3.058594 -4.996094 2.671875 -5.144531 2.21875 -5.144531 L 0.566406 -5.144531 L 0.566406 0 L 1.097656 0 L 1.097656 -2.035156 L 1.710938 -2.035156 L 3.222656 0 L 3.933594 0 L 2.347656 -2.035156 C 2.746094 -2.058594 3.085938 -2.203125 3.367188 -2.46875 C 3.683594 -2.761719 3.851562 -3.140625 3.851562 -3.59375 Z M 3.851562 -3.59375 "/></g></g></g><g clip-path="url(#566acab940)"><path fill="#f4f4f4" d="M 33.507812 200.605469 L 350.5 200.605469 L 350.5 237.519531 L 33.507812 237.519531 Z M 33.507812 200.605469 " fill-opacity="1" fill-rule="nonzero"/></g><g fill="#967f71" fill-opacity="1"><g transform="translate(124.35182, 227.124491)"><g><path d="M 5.722656 0.0625 C 10.925781 -2.242188 14.109375 -9.421875 15.957031 -14.042969 C 15.972656 -14.125 16.050781 -14.15625 16.128906 -14.140625 C 16.207031 -14.125 16.253906 -14.042969 16.253906 -13.964844 C 15.691406 -9.21875 14.5625 -3.023438 14.28125 -1.535156 C 14.25 -1.363281 14.34375 -1.175781 14.515625 -1.097656 C 14.6875 -1.019531 14.890625 -1.066406 15 -1.207031 C 16.960938 -3.574219 20.472656 -9.296875 22.808594 -13.246094 C 22.855469 -13.308594 22.949219 -13.339844 23.011719 -13.308594 C 23.089844 -13.277344 23.121094 -13.199219 23.105469 -13.121094 C 21.191406 -6.144531 19.984375 -0.28125 22.273438 0.4375 C 22.492188 0.5 22.730469 0.375 22.792969 0.15625 C 22.855469 -0.0625 22.746094 -0.28125 22.523438 -0.359375 C 20.503906 -0.972656 23.402344 -11.175781 24.640625 -15.519531 C 24.8125 -16.175781 24.984375 -16.773438 25.144531 -17.320312 C 25.191406 -17.523438 25.078125 -17.726562 24.890625 -17.808594 C 24.6875 -17.886719 24.46875 -17.808594 24.375 -17.617188 C 23.839844 -16.585938 19.265625 -8.667969 16.066406 -4.027344 C 16.003906 -3.917969 15.863281 -3.886719 15.753906 -3.933594 C 15.644531 -3.980469 15.582031 -4.089844 15.597656 -4.214844 C 16.269531 -8.011719 17.289062 -14.296875 17.367188 -17.601562 C 17.382812 -17.792969 17.257812 -17.964844 17.070312 -18.011719 C 16.882812 -18.058594 16.695312 -17.964844 16.601562 -17.792969 C 16.363281 -17.335938 16.050781 -16.554688 15.660156 -15.550781 C 13.949219 -11.191406 10.753906 -3.054688 5.390625 -0.691406 C 3.824219 0 2.664062 -0.3125 2.085938 -0.832031 C 1.644531 -1.222656 1.488281 -1.832031 1.675781 -2.382812 C 2.054688 -3.496094 3.589844 -4.261719 5.769531 -4.453125 C 5.878906 -4.453125 5.972656 -4.5 6.050781 -4.59375 C 6.113281 -4.671875 6.160156 -4.78125 6.144531 -4.890625 C 6.128906 -5.109375 5.925781 -5.28125 5.707031 -5.265625 C 2.070312 -4.953125 1.128906 -3.339844 0.894531 -2.664062 C 0.59375 -1.785156 0.847656 -0.832031 1.535156 -0.21875 C 2.117188 0.28125 2.867188 0.5625 3.652344 0.53125 C 4.359375 0.515625 5.078125 0.359375 5.722656 0.0625 Z M 5.722656 0.0625 "/></g></g></g><g fill="#967f71" fill-opacity="1"><g transform="translate(148.511933, 227.124491)"><g><path d="M 13.105469 -3.792969 C 12.949219 -3.964844 12.679688 -3.980469 12.507812 -3.824219 C 12.460938 -3.777344 7.804688 0.40625 4.921875 -1.488281 C 3.777344 -2.242188 3.496094 -4.058594 3.496094 -4.074219 C 3.480469 -4.261719 3.339844 -4.40625 3.152344 -4.4375 C 2.976562 -4.453125 2.789062 -4.359375 2.710938 -4.199219 C 1.976562 -2.570312 0.675781 -0.5 0.3125 -0.738281 C 0.28125 -0.738281 0.21875 -0.800781 0.171875 -0.910156 C -0.015625 -1.425781 0.046875 -1.992188 0.3125 -2.476562 C 0.910156 -3.699219 2.007812 -4.578125 3.324219 -4.90625 C 3.464844 -4.9375 3.574219 -5.046875 3.621094 -5.1875 C 3.667969 -5.328125 3.621094 -5.484375 3.527344 -5.597656 C 3.417969 -5.691406 3.277344 -5.738281 3.136719 -5.707031 C 1.566406 -5.328125 0.265625 -4.261719 -0.4375 -2.820312 C -0.816406 -2.117188 -0.863281 -1.269531 -0.5625 -0.53125 C -0.421875 -0.171875 -0.078125 0.078125 0.3125 0.078125 L 0.328125 0.078125 C 1.097656 0.0625 2.054688 -0.894531 2.710938 -1.929688 C 2.789062 -2.054688 2.929688 -2.117188 3.074219 -2.101562 C 3.214844 -2.101562 3.339844 -2.023438 3.402344 -1.898438 C 3.667969 -1.457031 4.027344 -1.082031 4.46875 -0.816406 C 7.882812 1.457031 12.851562 -3.023438 13.074219 -3.214844 C 13.152344 -3.292969 13.199219 -3.402344 13.199219 -3.496094 C 13.214844 -3.605469 13.167969 -3.714844 13.105469 -3.792969 Z M 13.105469 -3.792969 "/></g></g></g><g fill="#967f71" fill-opacity="1"><g transform="translate(161.171707, 227.124491)"><g><path d="M 13.699219 -3.902344 C 13.605469 -3.964844 13.511719 -4.011719 13.402344 -4.011719 C 13.292969 -3.996094 13.183594 -3.949219 13.121094 -3.871094 C 13.074219 -3.839844 9.625 -0.15625 6.628906 -1.363281 C 5.988281 -1.707031 5.46875 -2.226562 5.109375 -2.867188 C 4.984375 -3.074219 4.828125 -3.277344 4.640625 -3.464844 C 4.4375 -3.714844 4.121094 -3.855469 3.792969 -3.871094 C 2.992188 -3.933594 2.023438 -3.402344 0.863281 -2.304688 C 0.832031 -2.273438 0.785156 -2.257812 0.738281 -2.289062 C 0.691406 -2.304688 0.660156 -2.367188 0.675781 -2.414062 L 1.019531 -3.949219 C 1.082031 -4.167969 0.941406 -4.40625 0.722656 -4.453125 C 0.5 -4.5 0.28125 -4.359375 0.21875 -4.136719 L -0.5625 -0.707031 C -0.609375 -0.515625 -0.515625 -0.328125 -0.34375 -0.25 C -0.171875 -0.15625 0.03125 -0.203125 0.15625 -0.34375 C 2.257812 -2.804688 3.324219 -3.039062 3.699219 -3.054688 C 4.074219 -3.074219 4.3125 -2.585938 4.4375 -2.398438 C 4.875 -1.628906 5.535156 -1.003906 6.316406 -0.609375 C 9.828125 0.816406 13.558594 -3.152344 13.714844 -3.324219 C 13.871094 -3.480469 13.855469 -3.746094 13.699219 -3.902344 Z M 13.699219 -3.902344 "/></g></g></g><g fill="#967f71" fill-opacity="1"><g transform="translate(174.223178, 227.124491)"><g><path d="M 11.425781 -4.453125 C 11.347656 -4.53125 11.253906 -4.5625 11.144531 -4.5625 C 11.035156 -4.5625 10.925781 -4.53125 10.847656 -4.453125 C 8.964844 -2.570312 6.300781 -1.707031 3.683594 -2.148438 C 3.480469 -2.195312 3.339844 -2.382812 3.371094 -2.585938 C 3.496094 -3.339844 3.433594 -4.105469 2.992188 -4.359375 C 2.710938 -4.515625 2.289062 -4.53125 1.785156 -3.683594 C 1.597656 -3.402344 1.535156 -3.054688 1.597656 -2.726562 C 1.675781 -2.398438 1.882812 -2.101562 2.164062 -1.929688 C 2.335938 -1.785156 2.132812 -1.550781 2.023438 -1.441406 C 1.722656 -1.082031 1.207031 -1.019531 0.847656 -1.300781 C 0.390625 -1.503906 0.1875 -2.007812 0.359375 -2.460938 C 0.5625 -3.292969 1.378906 -4.011719 1.675781 -4.011719 C 1.898438 -4.011719 2.085938 -4.199219 2.085938 -4.421875 C 2.101562 -4.640625 1.914062 -4.828125 1.691406 -4.84375 L 1.675781 -4.84375 C 0.894531 -4.84375 -0.15625 -3.777344 -0.4375 -2.664062 C -0.707031 -1.851562 -0.328125 -0.957031 0.453125 -0.578125 C 0.753906 -0.40625 1.082031 -0.328125 1.425781 -0.3125 C 2.101562 -0.34375 2.695312 -0.753906 2.976562 -1.378906 C 3.007812 -1.425781 3.089844 -1.457031 3.152344 -1.441406 C 5.140625 -0.847656 8.777344 -1.222656 11.425781 -3.855469 C 11.503906 -3.933594 11.550781 -4.042969 11.550781 -4.152344 C 11.550781 -4.261719 11.503906 -4.375 11.425781 -4.453125 Z M 2.554688 -2.664062 C 2.382812 -2.820312 2.351562 -3.074219 2.492188 -3.261719 C 2.539062 -3.339844 2.570312 -3.386719 2.601562 -3.433594 C 2.617188 -3.183594 2.601562 -2.914062 2.554688 -2.664062 Z M 2.554688 -2.664062 "/></g></g></g><g fill="#967f71" fill-opacity="1"><g transform="translate(185.049791, 227.124491)"><g><path d="M 12.367188 -3.746094 C 12.210938 -3.917969 11.960938 -3.933594 11.789062 -3.777344 C 11.757812 -3.761719 8.527344 -0.941406 6.160156 -1.316406 C 5.453125 -1.425781 4.84375 -1.851562 4.5 -2.476562 C 4.199219 -3.023438 3.652344 -3.371094 3.039062 -3.433594 C 2.273438 -3.480469 1.425781 -3.023438 0.53125 -2.085938 C 0.484375 -2.039062 0.40625 -2.023438 0.34375 -2.054688 C 0.28125 -2.085938 0.25 -2.148438 0.265625 -2.226562 C 0.3125 -2.523438 0.453125 -3.277344 0.515625 -3.558594 C 0.515625 -3.511719 0.628906 -3.730469 0.628906 -3.746094 C 1.960938 -5.566406 5.941406 -11.332031 4.390625 -13.183594 C 4.183594 -13.464844 3.808594 -13.589844 3.464844 -13.496094 C 3.152344 -13.402344 2.195312 -13.105469 0.722656 -7.867188 C 0.359375 -6.597656 0.03125 -5.234375 -0.234375 -3.949219 L -0.34375 -3.808594 C -0.453125 -3.667969 -0.453125 -3.480469 -0.359375 -3.324219 C -0.59375 -2.164062 -0.753906 -1.097656 -0.832031 -0.28125 C -0.847656 -0.09375 -0.738281 0.078125 -0.5625 0.140625 C -0.390625 0.203125 -0.1875 0.140625 -0.078125 -0.015625 C 1.519531 -2.335938 2.539062 -2.632812 2.992188 -2.617188 C 3.324219 -2.585938 3.621094 -2.382812 3.777344 -2.085938 C 4.246094 -1.238281 5.078125 -0.644531 6.050781 -0.5 C 8.777344 -0.078125 12.179688 -3.039062 12.335938 -3.167969 C 12.492188 -3.324219 12.507812 -3.574219 12.367188 -3.746094 Z M 3.699219 -12.710938 C 3.730469 -12.710938 3.746094 -12.664062 3.761719 -12.648438 C 4.515625 -11.804688 1.394531 -5.5 1.003906 -5.753906 C 0.628906 -5.988281 3.039062 -12.710938 3.699219 -12.710938 Z M 3.699219 -12.710938 "/></g></g></g><g fill="#967f71" fill-opacity="1"><g transform="translate(196.894826, 227.124491)"><g><path d="M 13.105469 -3.792969 C 12.949219 -3.964844 12.679688 -3.980469 12.507812 -3.824219 C 12.460938 -3.777344 7.804688 0.40625 4.921875 -1.488281 C 3.777344 -2.242188 3.496094 -4.058594 3.496094 -4.074219 C 3.480469 -4.261719 3.339844 -4.40625 3.152344 -4.4375 C 2.976562 -4.453125 2.789062 -4.359375 2.710938 -4.199219 C 1.976562 -2.570312 0.675781 -0.5 0.3125 -0.738281 C 0.28125 -0.738281 0.21875 -0.800781 0.171875 -0.910156 C -0.015625 -1.425781 0.046875 -1.992188 0.3125 -2.476562 C 0.910156 -3.699219 2.007812 -4.578125 3.324219 -4.90625 C 3.464844 -4.9375 3.574219 -5.046875 3.621094 -5.1875 C 3.667969 -5.328125 3.621094 -5.484375 3.527344 -5.597656 C 3.417969 -5.691406 3.277344 -5.738281 3.136719 -5.707031 C 1.566406 -5.328125 0.265625 -4.261719 -0.4375 -2.820312 C -0.816406 -2.117188 -0.863281 -1.269531 -0.5625 -0.53125 C -0.421875 -0.171875 -0.078125 0.078125 0.3125 0.078125 L 0.328125 0.078125 C 1.097656 0.0625 2.054688 -0.894531 2.710938 -1.929688 C 2.789062 -2.054688 2.929688 -2.117188 3.074219 -2.101562 C 3.214844 -2.101562 3.339844 -2.023438 3.402344 -1.898438 C 3.667969 -1.457031 4.027344 -1.082031 4.46875 -0.816406 C 7.882812 1.457031 12.851562 -3.023438 13.074219 -3.214844 C 13.152344 -3.292969 13.199219 -3.402344 13.199219 -3.496094 C 13.214844 -3.605469 13.167969 -3.714844 13.105469 -3.792969 Z M 13.105469 -3.792969 "/></g></g></g><g fill="#967f71" fill-opacity="1"><g transform="translate(209.5546, 227.124491)"><g><path d="M 13.511719 -4.121094 C 13.433594 -4.199219 13.339844 -4.246094 13.230469 -4.246094 C 13.121094 -4.246094 13.011719 -4.199219 12.933594 -4.121094 C 10.21875 -1.472656 5.40625 -0.910156 4.375 -1.519531 C 3.667969 -1.929688 3.746094 -2.414062 4.246094 -3.386719 C 4.484375 -3.855469 4.75 -4.40625 4.296875 -4.734375 C 3.871094 -5.046875 3.464844 -4.84375 3.105469 -4.65625 C 2.585938 -4.359375 2.007812 -4.199219 1.394531 -4.199219 C 1.253906 -4.199219 1.128906 -4.453125 1.160156 -4.546875 C 2.039062 -6.472656 1.644531 -6.835938 1.503906 -6.976562 C 1.269531 -7.210938 0.910156 -7.195312 0.46875 -6.929688 C -0.25 -6.410156 -0.5625 -5.484375 -0.3125 -4.625 C -0.25 -4.390625 -0.140625 -4.167969 0.015625 -3.980469 C 0 -3.808594 0.078125 -3.652344 0.234375 -3.574219 C 0.328125 -3.527344 0.4375 -3.527344 0.546875 -3.558594 C 0.816406 -3.433594 1.113281 -3.371094 1.410156 -3.371094 C 2.054688 -3.355469 2.679688 -3.496094 3.246094 -3.808594 C 3.464844 -3.917969 3.542969 -3.824219 3.511719 -3.761719 C 3.136719 -3.023438 2.460938 -1.675781 3.964844 -0.800781 C 4.5 -0.546875 5.09375 -0.4375 5.691406 -0.484375 C 7.882812 -0.484375 11.332031 -1.425781 13.496094 -3.542969 C 13.574219 -3.605469 13.621094 -3.714844 13.621094 -3.824219 C 13.636719 -3.933594 13.589844 -4.042969 13.511719 -4.121094 Z M 0.453125 -4.984375 C 0.359375 -5.4375 0.515625 -5.910156 0.878906 -6.207031 C 0.769531 -5.785156 0.628906 -5.375 0.453125 -4.96875 Z M 0.453125 -4.984375 "/></g></g></g><g fill="#967f71" fill-opacity="1"><g transform="translate(222.402389, 227.124491)"><g/></g></g><g fill="#967f71" fill-opacity="1"><g transform="translate(228.230899, 227.124491)"><g><path d="M 4.96875 -0.15625 C 9.28125 -0.484375 19.71875 -4.484375 20.03125 -12.367188 C 20.078125 -14.265625 19.15625 -16.050781 17.570312 -17.117188 C 14.953125 -19.0625 10.957031 -19.53125 7.398438 -18.292969 C 3.277344 -16.882812 0.644531 -14.34375 0.328125 -11.503906 C 0.09375 -9.75 0.941406 -8.011719 2.460938 -7.101562 C 3.558594 -6.457031 4.84375 -6.175781 6.097656 -6.316406 C 6.175781 -6.332031 6.253906 -6.300781 6.300781 -6.238281 C 6.347656 -6.175781 6.363281 -6.097656 6.347656 -6.035156 C 5.722656 -4.042969 5.0625 -2.054688 4.546875 -0.722656 C 4.5 -0.59375 4.515625 -0.453125 4.59375 -0.328125 C 4.671875 -0.21875 4.796875 -0.15625 4.9375 -0.15625 Z M 7.257812 -6.207031 C 7.320312 -6.394531 7.476562 -6.550781 7.679688 -6.613281 C 8.949219 -6.976562 10.140625 -7.523438 11.222656 -8.246094 C 11.347656 -8.324219 11.425781 -8.464844 11.410156 -8.621094 C 11.410156 -8.761719 11.316406 -8.902344 11.191406 -8.964844 C 11.050781 -9.027344 10.894531 -9.027344 10.769531 -8.933594 C 9.921875 -8.386719 9.011719 -7.929688 8.058594 -7.585938 C 7.980469 -7.554688 7.882812 -7.585938 7.820312 -7.648438 C 7.773438 -7.695312 7.742188 -7.789062 7.773438 -7.867188 C 8.605469 -10.628906 9.28125 -12.949219 9.296875 -12.980469 C 9.34375 -13.167969 9.265625 -13.371094 9.089844 -13.449219 C 8.933594 -13.542969 8.730469 -13.511719 8.589844 -13.371094 C 7.898438 -12.632812 6.773438 -12.476562 5.910156 -13.011719 C 5.722656 -13.136719 5.46875 -13.074219 5.34375 -12.886719 C 5.21875 -12.679688 5.28125 -12.429688 5.484375 -12.304688 C 6.160156 -11.867188 7.007812 -11.742188 7.773438 -11.960938 C 7.851562 -11.992188 7.945312 -11.976562 8.011719 -11.914062 C 8.058594 -11.867188 8.089844 -11.773438 8.058594 -11.695312 C 7.742188 -10.644531 7.304688 -9.136719 6.820312 -7.539062 C 6.757812 -7.351562 6.582031 -7.210938 6.394531 -7.179688 C 5.1875 -6.976562 3.949219 -7.195312 2.898438 -7.789062 C 1.644531 -8.542969 0.957031 -9.96875 1.144531 -11.425781 C 1.410156 -13.933594 3.855469 -16.207031 7.664062 -17.523438 C 10.988281 -18.667969 14.671875 -18.246094 17.085938 -16.457031 C 18.433594 -15.566406 19.234375 -14.027344 19.21875 -12.398438 C 18.949219 -5.707031 10.359375 -1.914062 5.925781 -1.113281 C 5.847656 -1.097656 5.769531 -1.128906 5.722656 -1.191406 C 5.675781 -1.253906 5.660156 -1.332031 5.675781 -1.410156 C 6.160156 -2.773438 6.722656 -4.5 7.257812 -6.207031 Z M 7.257812 -6.207031 "/></g></g></g><g fill="#967f71" fill-opacity="1"><g transform="translate(247.361562, 227.124491)"><g><path d="M 1.535156 -0.171875 L 1.675781 -0.390625 C 1.800781 -0.578125 1.753906 -0.832031 1.566406 -0.957031 C 1.363281 -1.082031 1.113281 -1.035156 0.988281 -0.847656 L 0.847656 -0.628906 C 0.769531 -0.5 0.753906 -0.34375 0.832031 -0.203125 C 0.894531 -0.078125 1.035156 0 1.191406 0 C 1.316406 0.015625 1.457031 -0.0625 1.535156 -0.171875 Z M 1.535156 -0.171875 "/></g></g></g></svg>